<svg width="559" height="81" viewBox="0 0 559 81" fill="none" xmlns="http://www.w3.org/2000/svg">
<path d="M4.4 80C3.13333 80 2.06667 79.6667 1.2 79C0.4 78.2667 1.49012e-07 77.3 1.49012e-07 76.1V5.8C1.49012e-07 4.66666 0.366667 3.73333 1.1 3C1.83333 2.26666 2.76667 1.9 3.9 1.9H28.2C32.2 1.9 35.8 2.76666 39 4.49999C42.2667 6.16666 44.8333 8.46666 46.7 11.4C48.6333 14.3333 49.6 17.7333 49.6 21.6C49.6 25.2 48.6333 28.4 46.7 31.2C44.7667 34 42.2333 36.1333 39.1 37.6C43.5667 38.8 47.1667 41.0667 49.9 44.4C52.6333 47.6667 54 51.8333 54 56.9C54 61.4333 52.9667 65.4333 50.9 68.9C48.8333 72.3667 45.9667 75.1 42.3 77.1C38.7 79.0333 34.5667 80 29.9 80H4.4ZM7.8 72.5H29.9C33.1 72.5 35.9333 71.8667 38.4 70.6C40.8667 69.3333 42.8 67.5333 44.2 65.2C45.6 62.8667 46.3 60.1 46.3 56.9C46.3 53.9 45.6 51.3 44.2 49.1C42.8 46.8333 40.8667 45.1 38.4 43.9C35.9333 42.6333 33.1 42 29.9 42H7.8V72.5ZM7.8 34.5H28.2C32.2 34.5 35.5 33.3667 38.1 31.1C40.7 28.8333 42 25.6667 42 21.6C42 17.6 40.7 14.5667 38.1 12.5C35.5 10.4333 32.2 9.4 28.2 9.4H7.8V34.5Z" fill="#AC374D"/>
<path d="M73.4313 80C72.2979 80 71.3646 79.6333 70.6313 78.9C69.8979 78.1667 69.5313 77.2333 69.5313 76.1V5.8C69.5313 4.66666 69.8979 3.73333 70.6313 3C71.3646 2.26666 72.2979 1.9 73.4313 1.9H120.331C121.398 1.9 122.298 2.26666 123.031 3C123.831 3.66666 124.231 4.56666 124.231 5.7C124.231 6.7 123.831 7.56666 123.031 8.3C122.298 9.03333 121.398 9.4 120.331 9.4H77.3313V37H108.631C109.765 37 110.698 37.3667 111.431 38.1C112.165 38.8333 112.531 39.7333 112.531 40.8C112.531 41.8667 112.165 42.7667 111.431 43.5C110.698 44.2333 109.765 44.6 108.631 44.6H77.3313V72.5H120.331C121.398 72.5 122.298 72.8667 123.031 73.6C123.831 74.3333 124.231 75.2 124.231 76.2C124.231 77.3333 123.831 78.2667 123.031 79C122.298 79.6667 121.398 80 120.331 80H73.4313Z" fill="#E93E5F"/>
<path d="M173.87 81C168.47 81 163.403 79.9667 158.67 77.9C154.003 75.8333 149.87 72.9667 146.27 69.3C142.736 65.5667 139.97 61.3 137.97 56.5C135.97 51.6333 134.97 46.4333 134.97 40.9C134.97 35.4333 135.936 30.3 137.87 25.5C139.87 20.6333 142.636 16.3667 146.17 12.7C149.77 9.03333 153.903 6.16666 158.57 4.09999C163.303 1.96666 168.403 0.899999 173.87 0.899999C178.67 0.899999 183.036 1.6 186.97 3C190.903 4.4 194.703 6.63333 198.37 9.7C198.97 10.1667 199.303 10.7333 199.37 11.4C199.503 12 199.436 12.6 199.17 13.2C198.903 13.7333 198.503 14.1333 197.97 14.4C197.836 14.9333 197.503 15.3333 196.97 15.6C196.436 15.8667 195.803 15.9667 195.07 15.9C194.403 15.8333 193.736 15.5333 193.07 15C190.47 12.7333 187.636 11.0667 184.57 10C181.503 8.86666 177.936 8.3 173.87 8.3C169.536 8.3 165.47 9.16666 161.67 10.9C157.936 12.6333 154.636 15 151.77 18C148.903 21 146.636 24.4667 144.97 28.4C143.37 32.3333 142.57 36.5 142.57 40.9C142.57 45.4333 143.37 49.6667 144.97 53.6C146.636 57.5333 148.903 61 151.77 64C154.636 67 157.936 69.3667 161.67 71.1C165.47 72.7667 169.536 73.6 173.87 73.6C177.536 73.6 181.003 73 184.27 71.8C187.536 70.6 190.636 68.8667 193.57 66.6C194.37 65.9333 195.203 65.6667 196.07 65.8C197.003 65.9333 197.803 66.3333 198.47 67C199.136 67.6667 199.47 68.5333 199.47 69.6C199.47 70.1333 199.37 70.6333 199.17 71.1C199.036 71.5 198.77 71.9333 198.37 72.4C194.97 75.5333 191.17 77.7667 186.97 79.1C182.77 80.3667 178.403 81 173.87 81Z" fill="#FEAFAF"/>
<path d="M219.427 80C218.361 80 217.427 79.6333 216.627 78.9C215.894 78.1 215.527 77.1667 215.527 76.1V5.8C215.527 4.73333 215.894 3.83333 216.627 3.09999C217.427 2.3 218.361 1.9 219.427 1.9C220.494 1.9 221.394 2.3 222.127 3.09999C222.927 3.83333 223.327 4.73333 223.327 5.8V39.8L259.827 3.3C260.361 2.76666 260.861 2.4 261.327 2.19999C261.794 2 262.327 1.9 262.927 1.9C264.127 1.9 265.027 2.26666 265.627 3C266.227 3.73333 266.494 4.63333 266.427 5.7C266.427 6.7 266.027 7.66666 265.227 8.6L237.827 36L265.527 73.8C266.127 74.6667 266.361 75.6 266.227 76.6C266.161 77.5333 265.794 78.3333 265.127 79C264.461 79.6667 263.661 80 262.727 80C261.261 80 260.161 79.4333 259.427 78.3L232.227 41.5L223.327 50.5V76.1C223.327 77.1667 222.927 78.1 222.127 78.9C221.394 79.6333 220.494 80 219.427 80Z" fill="#E0AFFE"/>
<path d="M297.755 80C296.821 80 295.988 79.7 295.255 79.1C294.588 78.5 294.121 77.7333 293.855 76.8L273.355 7.5C272.888 5.9 272.955 4.56666 273.555 3.5C274.221 2.43333 275.255 1.9 276.655 1.9C277.455 1.9 278.188 2.13333 278.855 2.6C279.588 3 280.121 3.76666 280.455 4.9L298.955 69.3H296.655L314.155 6.6C314.355 5.86666 314.788 5.26666 315.455 4.8C316.188 4.33333 316.988 4.09999 317.855 4.09999C318.655 4.09999 319.421 4.33333 320.155 4.8C320.888 5.2 321.355 5.83333 321.555 6.7L339.155 69.3H336.855L355.455 4.49999C355.921 2.76666 357.188 1.9 359.255 1.9C360.655 1.9 361.621 2.46666 362.155 3.59999C362.688 4.66666 362.755 5.96666 362.355 7.5L341.955 76.7C341.621 77.7667 341.088 78.6 340.355 79.2C339.688 79.7333 338.888 80 337.955 80C337.021 80 336.188 79.7 335.455 79.1C334.788 78.5 334.321 77.7333 334.055 76.8L316.655 13.3H319.055L301.755 76.7C301.421 77.7 300.888 78.5 300.155 79.1C299.488 79.7 298.688 80 297.755 80Z" fill="#FEC7AF"/>
<path d="M378.802 80C377.669 80 376.736 79.6333 376.002 78.9C375.269 78.1667 374.902 77.2333 374.902 76.1V5.8C374.902 4.66666 375.269 3.73333 376.002 3C376.736 2.26666 377.669 1.9 378.802 1.9H425.702C426.769 1.9 427.669 2.26666 428.402 3C429.202 3.66666 429.602 4.56666 429.602 5.7C429.602 6.7 429.202 7.56666 428.402 8.3C427.669 9.03333 426.769 9.4 425.702 9.4H382.702V37H414.002C415.136 37 416.069 37.3667 416.802 38.1C417.536 38.8333 417.902 39.7333 417.902 40.8C417.902 41.8667 417.536 42.7667 416.802 43.5C416.069 44.2333 415.136 44.6 414.002 44.6H382.702V72.5H425.702C426.769 72.5 427.669 72.8667 428.402 73.6C429.202 74.3333 429.602 75.2 429.602 76.2C429.602 77.3333 429.202 78.2667 428.402 79C427.669 79.6667 426.769 80 425.702 80H378.802Z" fill="#D795A1"/>
<path d="M448.041 80C446.974 80 446.041 79.6333 445.241 78.9C444.507 78.1667 444.141 77.2333 444.141 76.1V5.8C444.141 4.73333 444.507 3.83333 445.241 3.09999C446.041 2.3 446.974 1.9 448.041 1.9C449.107 1.9 450.007 2.3 450.741 3.09999C451.541 3.83333 451.941 4.73333 451.941 5.8V72.6H491.041C492.107 72.6 493.007 72.9667 493.741 73.7C494.541 74.3667 494.941 75.2333 494.941 76.3C494.941 77.3667 494.541 78.2667 493.741 79C493.007 79.6667 492.107 80 491.041 80H448.041Z" fill="#FEAFBE"/>
<path d="M511.322 80C510.255 80 509.322 79.6333 508.522 78.9C507.789 78.1667 507.422 77.2333 507.422 76.1V5.8C507.422 4.73333 507.789 3.83333 508.522 3.09999C509.322 2.3 510.255 1.9 511.322 1.9C512.389 1.9 513.289 2.3 514.022 3.09999C514.822 3.83333 515.222 4.73333 515.222 5.8V72.6H554.322C555.389 72.6 556.289 72.9667 557.022 73.7C557.822 74.3667 558.222 75.2333 558.222 76.3C558.222 77.3667 557.822 78.2667 557.022 79C556.289 79.6667 555.389 80 554.322 80H511.322Z" fill="#B3354D"/>
</svg>
